===========Visit DUSTorrents.com for more Exclusives==============

Visit DusTorrents.com for more exclusives....

DusTorrents.com a Complete FreeLeech Site!! Registrations are absolutely FREE!!

Register by visiting..... www.dustorrents.com

========================================================

[CENTER][FONT=Century Gothic][SIZE=5][COLOR=#FF0000]Mashaal (1984) 1/3 DvD RiP XviD AC3 5.1 [Team DUS] [DUSTorrents][/COLOR][/SIZE][/FONT]

[IMG]http://img834.imageshack.us/img834/7674/dus5.png[/IMG]

[IMG]http://www.jointscene.com/ahtees/admin/movies/content/965_17_Mashaal%201984.jpg[/IMG][/CENTER]

[CODE]
[B][FONT=Comic Sans MS][COLOR=#FF0000]Source                           : DvD 9 @ DDR Thanks.
Ripper                           : I Proud To Be An Indian [Team DUS][/COLOR][/FONT][/B]
General
Complete name                    : D:\Download\Mashaal (1984) DvD RiP XviD AC3 5.1 [Team DUS]\Mashaal (1984) DvD RiP XviD AC3 5.1 [Team DUS].avi
Format                           : AVI
Format/Info                      : Audio Video Interleave
File size                        : 1.45 GiB
Duration                         : 2h 42mn
Overall bit rate                 : 1 284 Kbps

Video
ID                               : 0
Format                           : MPEG-4 Visual
Format profile                   : Advanced Simple@L5
Format settings, BVOP            : 2
Format settings, QPel            : Yes
Format settings, GMC             : No warppoints
Format settings, Matrix          : Default (H.263)
Codec ID                         : XVID
Codec ID/Hint                    : XviD
Duration                         : 2h 42mn
Bit rate                         : 827 Kbps
Width                            : 656 pixels
Height                           : 480 pixels
Display aspect ratio             : 4:3
Frame rate                       : 29.970 fps
Color space                      : YUV
Chroma subsampling               : 4:2:0
Bit depth                        : 8 bits
Scan type                        : Progressive
Compression mode                 : Lossy
Bits/(Pixel*Frame)               : 0.088
Stream size                      : 959 MiB (64%)
Writing library                  : XviD 1.2.1 (UTC 2008-12-04)

Audio
ID                               : 1
Format                           : AC-3
Format/Info                      : Audio Coding 3
Mode extension                   : CM (complete main)
Codec ID                         : 2000
Duration                         : 2h 42mn
Bit rate mode                    : Constant
Bit rate                         : 448 Kbps
Channel(s)                       : 6 channels
Channel positions                : Front: L C R, Side: L R, LFE
Sampling rate                    : 48.0 KHz
Bit depth                        : 16 bits
Compression mode                 : Lossy
Stream size                      : 519 MiB (35%)
Alignment                        : Aligned on interleaves
Interleave, duration             : 64 ms (1.92 video frames)
Interleave, preload duration     : 9856 ms
Title                            : VTS_02_1 T80 3_2ch 448Kbps DELAY 9809ms[/CODE]

[CENTER][IMG]http://img21.imageshack.us/img21/3431/5vh6rom324kkccccthg.gif[/IMG]

[IMG]http://img696.imageshack.us/img696/6971/vlcsnap2011082321h55m51.png[/IMG]

[IMG]http://img534.imageshack.us/img534/3673/vlcsnap2011082321h57m56.png[/IMG]

[IMG]http://img843.imageshack.us/img843/9549/vlcsnap2011082321h58m32.png[/IMG]

[IMG]http://img545.imageshack.us/img545/3763/vlcsnap2011082321h59m03.png[/IMG]

[IMG]http://img148.imageshack.us/img148/9057/vlcsnap2011082322h00m53.png[/IMG]

[IMG]http://img18.imageshack.us/img18/8191/vlcsnap2011082322h01m37.png[/IMG]

[IMG]http://img844.imageshack.us/img844/976/vlcsnap2011082322h02m18.png[/IMG]

[IMG]http://img851.imageshack.us/img851/3210/vlcsnap2011082322h02m24.png[/IMG]

[IMG]http://img689.imageshack.us/img689/5394/vlcsnap2011082322h03m15.png[/IMG]

[IMG]http://img6.imageshack.us/img6/4797/vlcsnap2011082322h03m42.png[/IMG]

[IMG]http://img827.imageshack.us/img827/6045/vlcsnap2011082322h04m46.png[/IMG]

[IMG]http://img199.imageshack.us/img199/6630/vlcsnap2011082322h05m31.png[/IMG]

[img]http://img716.imageshack.us/img716/4337/vlcsnap2011082322h05m44.png[/img]

[img]http://img580.imageshack.us/img580/6682/vlcsnap2011082322h05m59.png[/img]

:groupwave: 
[/CENTER]